# xmcd CD database file
#
# Track frame offsets:
#	150
#	16012
#	38987
#	63612
#	81517
#	113292
#	132697
#	159382
#	177727
#	210522
#	234270
#
# Disc length: 3385 seconds
#
# Revision: 0
# Processed by: cddbd v1.5.1PL2 Copyright (c) Steve Scherf et al.
# Submitted via: CDex 1.60beta1
#
DISCID=8f0d370b
DTITLE=YMO(Yellow Magic Orchestra) - SPACE INVADERS (Bootleg)
DYEAR=1991
DGENRE=Techno
TTITLE0=BEHIND THE MASK (BEHIND THE MASK)
TTITLE1=RYDEEN (RYDEEN)
TTITLE2=NICE AGE (MAPS)
TTITLE3=THE END OF EDEN (NICE AGE)
TTITLE4=CITIZENS OF SCIENCE (THE CORE OF EDEN)
TTITLE5=LA FEMME CHINONE (CITIZENS OF SCIENCE)
TTITLE6=CANTON BOY (LA FEMME CHINOISE)
TTITLE7=FIRECRACKER (RADIO JUNK)
TTITLE8=COSMIC SURFIN (ZAI KUNG TONG SHONEN)
TTITLE9=SPACE INVADER (FIRECRACKER)
TTITLE10=YELLOW MAGIC (COSMIC SURFIN')
EXTD=YEAR: 1991
EXTT0=
EXTT1=
EXTT2=
EXTT3=
EXTT4=
EXTT5=
EXTT6=
EXTT7=
EXTT8=
EXTT9=
EXTT10=
PLAYORDER=
